<svg width="87" height="87" viewBox="0 0 87 87" fill="none" xmlns="http://www.w3.org/2000/svg">
<g clip-path="url(#clip0_134_750)">
<path fill-rule="evenodd" clip-rule="evenodd" d="M72.3118 0C66.3262 0 61.2645 4.11945 59.8021 9.65004L58.1917 8.90184C57.9044 8.76829 57.5915 8.69909 57.2747 8.69909C56.9579 8.69909 56.645 8.76829 56.3577 8.90184L29.7244 21.2741L3.09111 8.90271C2.75971 8.74881 2.39488 8.68087 2.03029 8.70518C1.66571 8.7295 1.31313 8.84526 1.00509 9.04181C0.69706 9.23835 0.443507 9.50932 0.267842 9.82972C0.0921767 10.1501 6.13632e-05 10.5096 5.86602e-08 10.875V72.0247C-9.62333e-05 72.4394 0.118358 72.8455 0.341402 73.195C0.564446 73.5446 0.882783 73.8232 1.25889 73.9979L28.8083 86.7947C29.0956 86.9282 29.4085 86.9974 29.7253 86.9974C30.0421 86.9974 30.355 86.9282 30.6423 86.7947L57.2756 74.4233L83.9089 86.7947C85.3505 87.4637 87 86.4119 87 84.8233V23.6736C87.0001 23.2589 86.8816 22.8528 86.6586 22.5032C86.4356 22.1536 86.1172 21.8751 85.7411 21.7004L82.931 20.3937L83.8106 18.8955C84.0107 18.5327 84.1699 18.1465 84.3065 17.7515C84.9365 16.216 85.2604 14.5722 85.26 12.9125C85.26 5.81595 79.4293 0 72.3118 0ZM72.3118 6.04911C76.1441 6.04911 79.1917 9.09063 79.1917 12.9125C79.1917 16.7336 76.1441 19.7725 72.3118 19.7725C68.4794 19.7725 65.4318 16.7336 65.4318 12.9125C65.4318 9.09063 68.4794 6.04911 72.3118 6.04911ZM58.2474 13.7243L59.4454 14.2819C59.6791 16.4559 60.4653 18.5338 61.7291 20.318L70.7319 35.8823C71.9934 37.5301 72.832 37.2169 73.8804 35.7953L80.716 24.1608L82.65 25.0604V81.4146L58.5701 70.229L58.3735 35.7109C58.7285 35.7875 59.0826 35.8614 59.4384 35.9458L60.2388 32.5606C59.6125 32.4125 58.9837 32.2753 58.3526 32.1491L58.2482 13.7243H58.2474ZM55.6391 14.0322L55.7392 31.7246C54.8407 31.6013 53.9369 31.5197 53.0309 31.4801L52.9021 34.9566C53.8486 34.9914 54.803 35.0941 55.76 35.2333L55.9601 70.2368L31.012 81.8279L30.691 25.6224L55.6391 14.0322ZM4.35 14.2837L28.0793 25.3066L28.402 81.8105L4.35 70.6362V14.2837ZM49.1924 31.7176C47.9944 31.9325 46.7686 32.3162 45.6272 32.98C44.2617 33.7706 43.1389 34.9199 42.3803 36.3034L45.4271 37.9842C45.881 37.1577 46.5502 36.4696 47.3637 35.9928L47.3689 35.9893L47.3741 35.9858C48.0762 35.5769 48.9123 35.302 49.8075 35.1419L49.1924 31.7176ZM63.6918 33.4846L62.7061 36.8201C64.8837 37.4639 67.0405 38.2034 69.185 39.0038L70.4021 35.7431C68.1993 34.9218 65.9651 34.1562 63.6918 33.4846ZM41.0701 40.0931L41.044 40.2305L41.0414 40.2427C40.6073 42.7057 40.6534 45.1295 40.7508 47.4333L44.2273 47.2854C44.1325 45.0503 44.1125 42.8875 44.4683 40.8578L44.4892 40.7491L41.0701 40.0931ZM44.4344 50.7158L40.9631 50.9507C41.1197 53.2727 41.2867 55.5486 41.2806 57.7802L44.7606 57.7889C44.7676 55.379 44.591 53.023 44.4344 50.7158ZM41.1075 61.0601C41.0118 61.8892 40.8691 62.6957 40.6603 63.47L40.6586 63.4743L40.6568 63.4813C40.3523 64.6427 39.8399 65.7181 39.1248 66.5602L41.7757 68.8135C42.8962 67.4955 43.607 65.9443 44.0203 64.3748L44.022 64.3696C44.283 63.3986 44.4526 62.4208 44.564 61.4551L41.1075 61.0601ZM11.7293 64.4513L10.1668 67.5607C12.3244 68.6456 14.556 69.5426 16.8032 70.3186L17.9385 67.0292C15.8027 66.2923 13.7173 65.4501 11.7293 64.4513ZM21.1567 68.0297L20.231 71.3844C22.533 72.0203 24.8994 72.5258 27.318 72.7981L27.706 69.3399C25.5128 69.0937 23.3256 68.6291 21.1567 68.0297ZM36.9393 68.275C35.2063 69.1624 33.1139 69.4904 30.9624 69.5165L31.0059 72.9965C33.4715 72.9669 36.1076 72.6102 38.5245 71.3722L36.9393 68.275Z" fill="#0B5053"/>
</g>
<defs>
<clipPath id="clip0_134_750">
<rect width="87" height="87" fill="white"/>
</clipPath>
</defs>
</svg>
