<svg width="32" height="32" viewBox="0 0 32 32" fill="none" xmlns="http://www.w3.org/2000/svg">
<rect width="32" height="32" rx="8" fill="#F5F7FA"/>
<path fill-rule="evenodd" clip-rule="evenodd" d="M24.5279 14.3736C24.1572 13.7316 23.4779 13.5206 22.8294 13.4299C22.1757 13.3385 21.3008 13.3385 20.2426 13.3386H20.1824C19.5523 13.3386 19.1403 13.3324 18.8402 13.2906C18.5688 13.2529 18.4825 13.197 18.4456 13.1645C18.4187 13.1363 18.3706 13.0706 18.3379 12.8337C18.2993 12.5542 18.2976 12.1711 18.2976 11.557V11.1825C18.2977 9.59503 18.2977 8.32329 18.1755 7.4166C18.0608 6.56554 17.7882 5.60969 16.844 5.32035C15.9164 5.03608 15.1384 5.64564 14.5337 6.27405C13.8894 6.9435 13.1241 7.97895 12.166 9.27538L9.02896 13.5197C8.41863 14.3454 7.90984 15.0337 7.60669 15.6029C7.3028 16.1735 7.08164 16.8509 7.41872 17.5268L7.41989 17.5293L7.42344 17.5365L7.42748 17.5445L7.43146 17.5522L7.4358 17.5603L7.44023 17.5685L7.44441 17.576L7.44884 17.5838L7.45289 17.5907L7.45438 17.5931C7.82188 18.2296 8.49825 18.4524 9.1526 18.5523C9.82693 18.6553 10.7267 18.6619 11.8179 18.6619C12.4546 18.6619 12.8605 18.6633 13.1586 18.7013C13.4219 18.7349 13.5007 18.7867 13.5345 18.8165C13.5644 18.8478 13.6168 18.9207 13.6538 19.1663C13.6961 19.4473 13.7028 19.8364 13.7028 20.4435L13.7027 20.8178C13.7027 22.4053 13.7027 23.6771 13.8248 24.5838C13.9395 25.4349 14.2121 26.3907 15.1563 26.6801C16.0839 26.9644 16.8619 26.3548 17.4667 25.7264C18.1109 25.0569 18.8762 24.0215 19.8344 22.725L22.9338 18.5317C23.5646 17.6783 24.0834 16.9652 24.3893 16.3718C24.6887 15.7911 24.8976 15.1097 24.5636 14.44L24.5624 14.4376L24.5589 14.4303L24.5548 14.4223L24.5508 14.4146L24.5465 14.4064L24.542 14.3982L24.5378 14.3907L24.5334 14.3829L24.5293 14.3759L24.5279 14.3736ZM15.6145 7.31416C15.0465 7.90435 14.3387 8.85927 13.335 10.2173L10.2729 14.3604C9.61517 15.2502 9.17513 15.849 8.93062 16.3081C8.81161 16.5315 8.76693 16.6725 8.75421 16.7578C8.74635 16.8105 8.75115 16.8343 8.75742 16.8496C8.78161 16.8852 8.88663 16.9943 9.379 17.0695C9.9169 17.1516 10.6903 17.1619 11.8179 17.1619H11.8639C12.4411 17.1618 12.9439 17.1618 13.3483 17.2134C13.7815 17.2686 14.2118 17.3942 14.568 17.7293L14.5739 17.7348L14.5796 17.7404C14.9296 18.0839 15.0719 18.5099 15.1371 18.9429C15.1994 19.3568 15.2028 19.8658 15.2028 20.4435L15.2027 20.753C15.2027 22.42 15.2044 23.5894 15.3114 24.3835C15.3647 24.7789 15.4363 25.0108 15.505 25.1404C15.5564 25.2374 15.586 25.2438 15.5943 25.2456L15.5958 25.2459L15.5973 25.2464C15.6078 25.25 15.6446 25.2628 15.7583 25.2056C15.9003 25.1341 16.1032 24.98 16.3858 24.6863C16.9538 24.0961 17.6616 23.1412 18.6654 21.7831L21.7275 17.6401C22.3815 16.7553 22.8172 16.1478 23.0561 15.6845C23.2608 15.2873 23.2385 15.1528 23.2249 15.1171C23.2024 15.0843 23.1016 14.9826 22.6217 14.9155C22.0846 14.8404 21.3161 14.8386 20.1824 14.8386C19.5796 14.8386 19.0567 14.8352 18.6336 14.7763C18.1968 14.7156 17.7655 14.5841 17.4123 14.252L17.4065 14.2465L17.4008 14.2409C17.0476 13.8942 16.9114 13.4687 16.852 13.0389C16.7975 12.6445 16.7976 12.1562 16.7976 11.6054V11.2473C16.7976 9.58044 16.7959 8.41099 16.6889 7.61692C16.6356 7.22153 16.564 6.98959 16.4954 6.86008C16.4439 6.76301 16.4143 6.75666 16.406 6.75487L16.4045 6.75451L16.403 6.75401C16.3925 6.7504 16.3557 6.73767 16.242 6.79487C16.1 6.86633 15.8972 7.02042 15.6145 7.31416Z" fill="#36A9AE"/>
</svg>
