<svg width="38" height="38" viewBox="0 0 38 38" fill="none" xmlns="http://www.w3.org/2000/svg">
<path d="M19 3.16669L4.75 14.25V31.6667C4.75 32.5065 5.08363 33.312 5.6775 33.9059C6.27136 34.4997 7.07681 34.8334 7.91667 34.8334H14.25V19H23.75V34.8334H30.0833C30.9232 34.8334 31.7286 34.4997 32.3225 33.9059C32.9164 33.312 33.25 32.5065 33.25 31.6667V14.25L19 3.16669Z" fill="#36A9AE"/>
<path d="M30.0833 34.8334C30.9232 34.8334 31.7286 34.4997 32.3225 33.9059C32.9164 33.312 33.25 32.5065 33.25 31.6667V14.25L19 3.16669L4.75 14.25V31.6667C4.75 32.5065 5.08363 33.312 5.6775 33.9059C6.27136 34.4997 7.07681 34.8334 7.91667 34.8334M30.0833 34.8334H7.91667M30.0833 34.8334H23.75V19H14.25V34.8334H7.91667" stroke="#36A9AE" stroke-width="3" stroke-linecap="round" stroke-linejoin="round"/>
</svg>
