<svg width="38" height="38" viewBox="0 0 38 38" fill="none" xmlns="http://www.w3.org/2000/svg">
<g clip-path="url(#clip0_279_295)">
<path fill-rule="evenodd" clip-rule="evenodd" d="M33.25 15.8333C33.25 26.9166 19 36.4166 19 36.4166C19 36.4166 4.75 26.9166 4.75 15.8333C4.75 12.054 6.25133 8.42944 8.92373 5.75704C11.5961 3.08465 15.2207 1.58331 19 1.58331C22.7793 1.58331 26.4039 3.08465 29.0763 5.75704C31.7487 8.42944 33.25 12.054 33.25 15.8333ZM19 20.5833C21.6234 20.5833 23.75 18.4567 23.75 15.8333C23.75 13.21 21.6234 11.0833 19 11.0833C16.3766 11.0833 14.25 13.21 14.25 15.8333C14.25 18.4567 16.3766 20.5833 19 20.5833Z" fill="#36A9AE" stroke="#36A9AE" stroke-width="3" stroke-linecap="round" stroke-linejoin="round"/>
</g>
<defs>
<clipPath id="clip0_279_295">
<rect width="38" height="38" fill="white"/>
</clipPath>
</defs>
</svg>
