<svg width="40" height="40" viewBox="0 0 40 40" fill="none" xmlns="http://www.w3.org/2000/svg">
<path d="M10.0003 30H30.0003V28.6667C30.0003 28.3611 29.9239 28.0834 29.7712 27.8334C29.6184 27.5834 29.417 27.3889 29.167 27.25C27.667 26.5 26.1531 25.9375 24.6253 25.5625C23.0975 25.1875 21.5559 25 20.0003 25C18.4448 25 16.9031 25.1875 15.3753 25.5625C13.8475 25.9375 12.3337 26.5 10.8337 27.25C10.5837 27.3889 10.3823 27.5834 10.2295 27.8334C10.0767 28.0834 10.0003 28.3611 10.0003 28.6667V30Z" fill="#36A9AE"/>
<path fill-rule="evenodd" clip-rule="evenodd" d="M6.66699 28.6667V33.3334H33.3337V28.6667C33.3337 27.7222 33.0906 26.8542 32.6045 26.0625C32.1184 25.2709 31.4725 24.6667 30.667 24.25C28.9448 23.3889 27.1948 22.7431 25.417 22.3125C23.6392 21.882 21.8337 21.6667 20.0003 21.6667C18.167 21.6667 16.3614 21.882 14.5837 22.3125C12.8059 22.7431 11.0559 23.3889 9.33366 24.25C8.5281 24.6667 7.88227 25.2709 7.39616 26.0625C6.91005 26.8542 6.66699 27.7222 6.66699 28.6667ZM30.0003 28.6667V30H10.0003V28.6667C10.0003 28.3611 10.0767 28.0834 10.2295 27.8334C10.3823 27.5834 10.5837 27.3889 10.8337 27.25C12.3337 26.5 13.8475 25.9375 15.3753 25.5625C16.9031 25.1875 18.4448 25 20.0003 25C21.5559 25 23.0975 25.1875 24.6253 25.5625C26.1531 25.9375 27.667 26.5 29.167 27.25C29.417 27.3889 29.6184 27.5834 29.7712 27.8334C29.9239 28.0834 30.0003 28.3611 30.0003 28.6667Z" fill="#36A9AE"/>
<path fill-rule="evenodd" clip-rule="evenodd" d="M20.0003 20C18.167 20 16.5975 19.3472 15.292 18.0417C13.9864 16.7361 13.3337 15.1667 13.3337 13.3334C13.3337 11.5 13.9864 9.93058 15.292 8.62502C16.5975 7.31946 18.167 6.66669 20.0003 6.66669C21.8337 6.66669 23.4031 7.31946 24.7087 8.62502C26.0142 9.93058 26.667 11.5 26.667 13.3334C26.667 15.1667 26.0142 16.7361 24.7087 18.0417C23.4031 19.3472 21.8337 20 20.0003 20ZM22.3545 15.6875C21.7017 16.3403 20.917 16.6667 20.0003 16.6667C19.0837 16.6667 18.2989 16.3403 17.6462 15.6875C16.9934 15.0347 16.667 14.25 16.667 13.3334C16.667 12.4167 16.9934 11.632 17.6462 10.9792C18.2989 10.3264 19.0837 10 20.0003 10C20.917 10 21.7017 10.3264 22.3545 10.9792C23.0073 11.632 23.3337 12.4167 23.3337 13.3334C23.3337 14.25 23.0073 15.0347 22.3545 15.6875Z" fill="#36A9AE"/>
<path d="M20.0003 16.6667C20.917 16.6667 21.7017 16.3403 22.3545 15.6875C23.0073 15.0347 23.3337 14.25 23.3337 13.3334C23.3337 12.4167 23.0073 11.632 22.3545 10.9792C21.7017 10.3264 20.917 10 20.0003 10C19.0837 10 18.2989 10.3264 17.6462 10.9792C16.9934 11.632 16.667 12.4167 16.667 13.3334C16.667 14.25 16.9934 15.0347 17.6462 15.6875C18.2989 16.3403 19.0837 16.6667 20.0003 16.6667Z" fill="#36A9AE"/>
</svg>
