<svg width="12" height="12" viewBox="0 0 12 12" fill="none" xmlns="http://www.w3.org/2000/svg">
<g clip-path="url(#clip0_151_704)">
<path d="M11.7753 4.45069C11.6872 4.18837 11.4601 3.99712 11.1868 3.95531L8.00508 3.46912L6.57596 0.424687C6.45408 0.165188 6.19365 0 5.90752 0C5.62121 0 5.36096 0.165188 5.23908 0.424687L3.80977 3.46931L0.628083 3.9555C0.354708 3.99731 0.127645 4.18837 0.0397079 4.45087C-0.0482296 4.71337 0.0181454 5.0025 0.211458 5.20087L2.53496 7.58344L1.98465 10.9541C1.93927 11.2331 2.05758 11.5136 2.2884 11.6767C2.51902 11.8399 2.82352 11.8564 3.07158 11.7195L5.90771 10.1511L8.74383 11.7195C8.85577 11.7814 8.97896 11.8117 9.10158 11.8117C9.25083 11.8117 9.40008 11.7664 9.52702 11.6767C9.75783 11.5138 9.87596 11.2333 9.83058 10.9541L9.28027 7.58344L11.604 5.20087C11.7969 5.0025 11.8633 4.71337 11.7753 4.45069Z" fill="#FFB86A"/>
</g>
<defs>
<clipPath id="clip0_151_704">
<rect width="12" height="12" fill="white"/>
</clipPath>
</defs>
</svg>
