<svg width="24" height="24" viewBox="0 0 24 24" fill="none" xmlns="http://www.w3.org/2000/svg">
<path d="M3.60059 2.14999H20.4004C20.5197 2.14999 20.6344 2.19744 20.7188 2.28183C20.8031 2.36621 20.8506 2.48088 20.8506 2.60019V8.1998C20.8506 8.3191 20.8031 8.43378 20.7188 8.51816C20.6344 8.60255 20.5197 8.64999 20.4004 8.64999C20.281 8.64999 20.1664 8.60255 20.082 8.51816C19.9977 8.43378 19.9502 8.3191 19.9502 8.1998C19.9501 7.36444 19.618 6.56295 19.0273 5.97226C18.4367 5.38186 17.6359 5.05049 16.8008 5.05038H13.6504V18.9996C13.6504 19.5167 13.856 20.0128 14.2217 20.3785C14.5874 20.7442 15.0834 20.9498 15.6006 20.9498C15.7199 20.9499 15.8346 20.9973 15.9189 21.0816C16.0033 21.166 16.0508 21.2807 16.0508 21.4C16.0508 21.5193 16.0033 21.634 15.9189 21.7184C15.8346 21.8027 15.7199 21.8501 15.6006 21.8502H8.40039L8.31152 21.8414C8.22518 21.8241 8.14527 21.7815 8.08203 21.7184C7.9976 21.634 7.95026 21.5193 7.9502 21.4C7.9502 21.2807 7.99677 21.166 8.08105 21.0816C8.12282 21.0398 8.17295 21.0066 8.22754 20.984C8.28124 20.9617 8.34076 20.9499 8.40039 20.9498C8.65663 20.9498 8.91075 20.8995 9.14746 20.8014C9.38404 20.7032 9.59926 20.5597 9.78027 20.3785C9.96137 20.1972 10.1043 19.9815 10.2021 19.7447C10.2756 19.567 10.3222 19.3798 10.3408 19.1891L10.3506 18.9977V5.05038H7.2002C6.36483 5.05044 5.56335 5.38157 4.97266 5.97226C4.38196 6.56295 4.05083 7.36444 4.05078 8.1998C4.05078 8.31905 4.00321 8.43379 3.91895 8.51816C3.8346 8.6025 3.71986 8.64994 3.60059 8.64999C3.48124 8.64999 3.36662 8.60255 3.28223 8.51816C3.19784 8.43377 3.15039 8.31915 3.15039 8.1998V2.60019C3.15039 2.48084 3.19784 2.36622 3.28223 2.28183C3.36662 2.19744 3.48124 2.14999 3.60059 2.14999Z" stroke="#36A9AE" stroke-width="1.5"/>
</svg>
